<svg id="Capa_1" data-name="Capa 1" xmlns="http://www.w3.org/2000/svg" viewBox="0 0 759.34 230.06"><defs><style>.cls-1{fill:#ffa400;}.cls-2{fill:#e7004c;}</style></defs><title>LOGO SYSTIENDA</title><path class="cls-1" d="M768.37,63.93a7.13,7.13,0,1,0,7.13,7.13A7.13,7.13,0,0,0,768.37,63.93Zm0,13.09a6,6,0,1,1,6-6A6,6,0,0,1,768.37,77Z" transform="translate(-16.17 -11.08)"/><path class="cls-1" d="M766.16,67.37H768a8.72,8.72,0,0,1,1,.06,2.71,2.71,0,0,1,.9.26,1.54,1.54,0,0,1,.65.59,1.84,1.84,0,0,1,.25,1,1.7,1.7,0,0,1-.47,1.26,2.24,2.24,0,0,1-1.3.61l2,3.26h-1l-1.92-3.18H767v3.18h-.84Zm.84,3.12h.75l.73,0a2.49,2.49,0,0,0,.69-.13,1.24,1.24,0,0,0,.52-.34,1,1,0,0,0,.2-.68,1.1,1.1,0,0,0-.15-.61,1,1,0,0,0-.39-.35,1.68,1.68,0,0,0-.55-.17,4.3,4.3,0,0,0-.62,0H767Z" transform="translate(-16.17 -11.08)"/><path class="cls-2" d="M106.35,125.11c.74.62,1.7,1.44,2.86,2.47a37.64,37.64,0,0,0,4,3.06,32.9,32.9,0,0,0,6.64,3.48,19.31,19.31,0,0,0,6.9,1.25,17.8,17.8,0,0,0,5.62-.76,9.27,9.27,0,0,0,3.58-2,7,7,0,0,0,1.88-2.89,10.8,10.8,0,0,0,.56-3.48,5.15,5.15,0,0,0-1.55-3.65,16.31,16.31,0,0,0-3.78-2.86,31.82,31.82,0,0,0-4.67-2.13c-1.62-.59-3-1.08-4.2-1.48a96.59,96.59,0,0,1-13.81-5.94,42.78,42.78,0,0,1-9.86-7.09A25.59,25.59,0,0,1,92.6,84a24.79,24.79,0,0,1,2.47-11.1,24.27,24.27,0,0,1,7-8.54,33,33,0,0,1,11-5.48,49.62,49.62,0,0,1,14.4-2A47.85,47.85,0,0,1,139,58.28a43.88,43.88,0,0,1,10.82,4.31c1.49.88,2.9,1.78,4.24,2.73a42.38,42.38,0,0,1,3.51,2.73,16.56,16.56,0,0,1,2.4,2.49,3.59,3.59,0,0,1,.89,2,3,3,0,0,1-.43,1.58,9.26,9.26,0,0,1-1.28,1.64L149.08,86.52a3.23,3.23,0,0,1-2.23,1.12,2.89,2.89,0,0,1-1.68-.53c-.5-.35-1.06-.79-1.67-1.31l-.6-.53c-.87-.74-1.85-1.51-2.92-2.3a27.33,27.33,0,0,0-3.45-2.14,23.5,23.5,0,0,0-3.88-1.57,14,14,0,0,0-4.15-.63,21.94,21.94,0,0,0-4.07.36,11.66,11.66,0,0,0-3.36,1.15,6.49,6.49,0,0,0-2.3,2.07,6.07,6.07,0,0,0,.07,6.31A8.82,8.82,0,0,0,121.6,91a25.44,25.44,0,0,0,4.57,2.17c1.82.68,3.93,1.42,6.35,2.21q7,2.3,12.85,4.83a43.5,43.5,0,0,1,10.16,6,24.68,24.68,0,0,1,6.67,8.25,25.81,25.81,0,0,1,2.4,11.64,28.83,28.83,0,0,1-3,13.12,30,30,0,0,1-8.12,10,37.86,37.86,0,0,1-12.13,6.42,48.23,48.23,0,0,1-15,2.26,42.55,42.55,0,0,1-14.86-2.7A57.24,57.24,0,0,1,97.93,148a35.35,35.35,0,0,1-4.43-3.76c-1.21-1.23-2.17-2.22-2.86-3l-.2-.2a.38.38,0,0,0-.13-.16.61.61,0,0,1-.14-.1.35.35,0,0,0-.13-.17.51.51,0,0,1-.13-.09,4.63,4.63,0,0,1-1.51-2.64,3.72,3.72,0,0,1,1.51-2.51l11.38-10.85a4.3,4.3,0,0,1,2.23-1,2.48,2.48,0,0,1,1.25.39A13.84,13.84,0,0,1,106.35,125.11Z" transform="translate(-16.17 -11.08)"/><path class="cls-2" d="M201.38,95.07l15.88-34a8.6,8.6,0,0,1,.66-1.15,2,2,0,0,1,.53-.53,1.4,1.4,0,0,1,.56-.2,3.18,3.18,0,0,0,.69-.16H245a1,1,0,0,1,.76.3.94.94,0,0,1,.29.69,2.52,2.52,0,0,1-.92,1.64L214,116.83v36.75q0,3.09-3,3.09H191.29a2.56,2.56,0,0,1-2-.82,3.32,3.32,0,0,1-.72-2.27V116.7l-31.1-55a2.41,2.41,0,0,1-.85-1.64,1,1,0,0,1,.26-.69.92.92,0,0,1,.72-.3h25.32a4.43,4.43,0,0,0,.72.16,1.44,1.44,0,0,1,.53.2,2.2,2.2,0,0,1,.53.53c.17.24.41.62.72,1.15Z" transform="translate(-16.17 -11.08)"/><path class="cls-2" d="M253.16,125.11c.75.62,1.7,1.44,2.86,2.47a38.7,38.7,0,0,0,4,3.06,33.44,33.44,0,0,0,6.64,3.48,19.31,19.31,0,0,0,6.9,1.25,17.86,17.86,0,0,0,5.63-.76,9.35,9.35,0,0,0,3.58-2,7.08,7.08,0,0,0,1.87-2.89,10.53,10.53,0,0,0,.56-3.48,5.11,5.11,0,0,0-1.55-3.65,16,16,0,0,0-3.77-2.86,32.3,32.3,0,0,0-4.67-2.13c-1.62-.59-3-1.08-4.21-1.48a97.08,97.08,0,0,1-13.81-5.94,43,43,0,0,1-9.86-7.09A25.53,25.53,0,0,1,239.42,84a24.65,24.65,0,0,1,2.47-11.1,24.24,24.24,0,0,1,7-8.54,33.18,33.18,0,0,1,11-5.48,49.55,49.55,0,0,1,14.39-2,47.93,47.93,0,0,1,11.48,1.35,43.81,43.81,0,0,1,10.81,4.31c1.49.88,2.9,1.78,4.24,2.73a42.64,42.64,0,0,1,3.52,2.73,16.56,16.56,0,0,1,2.4,2.49,3.66,3.66,0,0,1,.89,2,3,3,0,0,1-.43,1.58A9.76,9.76,0,0,1,306,75.8L295.9,86.52a3.25,3.25,0,0,1-2.24,1.12,2.86,2.86,0,0,1-1.67-.53,20.77,20.77,0,0,1-1.68-1.31l-.59-.53c-.88-.74-1.85-1.51-2.93-2.3a26,26,0,0,0-3.45-2.14,23.16,23.16,0,0,0-3.88-1.57,14,14,0,0,0-4.14-.63,22,22,0,0,0-4.08.36,11.49,11.49,0,0,0-3.35,1.15,6.49,6.49,0,0,0-2.3,2.07,5.53,5.53,0,0,0-.86,3.13,5.42,5.42,0,0,0,.93,3.18,8.89,8.89,0,0,0,2.75,2.5A25.77,25.77,0,0,0,273,93.19q2.73,1,6.35,2.21,7,2.3,12.85,4.83a43.29,43.29,0,0,1,10.16,6,24.84,24.84,0,0,1,6.68,8.25,26,26,0,0,1,2.39,11.64,28.82,28.82,0,0,1-3,13.12,30.08,30.08,0,0,1-8.12,10,38,38,0,0,1-12.13,6.42,48.27,48.27,0,0,1-15,2.26,42.5,42.5,0,0,1-14.86-2.7A57,57,0,0,1,244.75,148a34.79,34.79,0,0,1-4.44-3.76c-1.21-1.23-2.16-2.22-2.86-3l-.2-.2a.32.32,0,0,0-.13-.16.57.57,0,0,1-.13-.1.52.52,0,0,0-.13-.17.38.38,0,0,1-.13-.09,4.66,4.66,0,0,1-1.52-2.64,3.75,3.75,0,0,1,1.52-2.51l11.37-10.85a4.33,4.33,0,0,1,2.24-1,2.42,2.42,0,0,1,1.24.39A13,13,0,0,1,253.16,125.11Z" transform="translate(-16.17 -11.08)"/><path class="cls-1" d="M386.35,98.88H365.8V124.1a46.87,46.87,0,0,0,.31,5.68,11.38,11.38,0,0,0,1.4,4.44,7.05,7.05,0,0,0,3.35,2.89,14.89,14.89,0,0,0,6,1,42.54,42.54,0,0,0,4.91-.39,8.36,8.36,0,0,0,4.59-1.79V155.4a35.53,35.53,0,0,1-8.09,1.87,75.24,75.24,0,0,1-8.26.46,45,45,0,0,1-10.9-1.24,25,25,0,0,1-8.72-4,18.62,18.62,0,0,1-5.84-7.09,24.19,24.19,0,0,1-2.1-10.58v-36H327.5V80.19h14.94V57.77H365.8V80.19h20.55Z" transform="translate(-16.17 -11.08)"/><path class="cls-2" d="M392,56.37A13.55,13.55,0,1,1,415.08,66,13.56,13.56,0,0,1,392,56.37Z" transform="translate(-16.17 -11.08)"/><rect class="cls-1" x="377.66" y="69.11" width="23.36" height="75.67"/><path class="cls-1" d="M501,142.79a37.27,37.27,0,0,1-14.17,11.05A42.54,42.54,0,0,1,469,157.73a47.65,47.65,0,0,1-16.43-2.8,39.61,39.61,0,0,1-13.39-8,37.51,37.51,0,0,1-8.95-12.53,42.51,42.51,0,0,1,0-32.7,37.61,37.61,0,0,1,8.95-12.53,39.61,39.61,0,0,1,13.39-8A47.65,47.65,0,0,1,469,78.33a37.31,37.31,0,0,1,14.71,2.8,30.62,30.62,0,0,1,11.21,8A36.38,36.38,0,0,1,502,101.68,50.56,50.56,0,0,1,504.53,118v7.32H450.35A18.4,18.4,0,0,0,456.42,136a17.14,17.14,0,0,0,11.52,4,17.57,17.57,0,0,0,9.73-2.56,26.2,26.2,0,0,0,6.93-6.62Zm-19.78-33.32a13.48,13.48,0,0,0-3.89-10.12,13.81,13.81,0,0,0-10.43-4.21A17.52,17.52,0,0,0,460,96.39a17.12,17.12,0,0,0-5.06,3.19,14,14,0,0,0-3.27,4.52,14.72,14.72,0,0,0-1.32,5.37Z" transform="translate(-16.17 -11.08)"/><path class="cls-1" d="M514,80.19h22.43V90.47h.31a18.69,18.69,0,0,1,3.11-4.36,22.68,22.68,0,0,1,4.83-3.89,27.16,27.16,0,0,1,6.38-2.8,26.52,26.52,0,0,1,7.79-1.09q8.86,0,14.32,2.72a20.77,20.77,0,0,1,8.48,7.55A30.53,30.53,0,0,1,585.8,100a85.93,85.93,0,0,1,1.09,14.17v41.73H563.54V118.81q0-3.27-.24-6.78a21.23,21.23,0,0,0-1.4-6.46,11.11,11.11,0,0,0-3.58-4.82q-2.42-1.87-6.93-1.87a14.43,14.43,0,0,0-7.32,1.63,11.27,11.27,0,0,0-4.28,4.36,17.75,17.75,0,0,0-1.94,6.15,53.31,53.31,0,0,0-.47,7.17v37.68H514Z" transform="translate(-16.17 -11.08)"/><path class="cls-1" d="M678.13,155.87H656.64v-10h-.31a25.69,25.69,0,0,1-3.65,4.13,27.67,27.67,0,0,1-5.3,3.81,31.68,31.68,0,0,1-6.69,2.8,26.23,26.23,0,0,1-7.56,1.09,39,39,0,0,1-15.26-2.88,34,34,0,0,1-11.75-8.09,36.1,36.1,0,0,1-7.55-12.38,45,45,0,0,1-2.65-15.73,47.41,47.41,0,0,1,2.42-15.18,41.71,41.71,0,0,1,6.84-12.84,33.56,33.56,0,0,1,10.83-9,30.7,30.7,0,0,1,14.48-3.34,40.25,40.25,0,0,1,13.62,2.25,21.87,21.87,0,0,1,10.35,7.71h.32V38.15h23.35ZM656.64,118q0-8.57-4.9-13.86T638,98.88q-8.88,0-13.78,5.29T619.28,118q0,8.56,4.9,13.86T638,137.18q8.88,0,13.78-5.29T656.64,118Z" transform="translate(-16.17 -11.08)"/><path class="cls-1" d="M739.64,146.37h-.32A21.94,21.94,0,0,1,729,155.09a36.31,36.31,0,0,1-23.82,1.17,25.83,25.83,0,0,1-8.64-4.44,21.37,21.37,0,0,1-5.92-7.32,22.27,22.27,0,0,1-2.18-10.12,23.21,23.21,0,0,1,2.41-11.06,21.59,21.59,0,0,1,6.54-7.47,32.51,32.51,0,0,1,9.42-4.59,68.9,68.9,0,0,1,11-2.42,103.71,103.71,0,0,1,11.37-.93c3.78-.1,7.29-.15,10.51-.15a12.14,12.14,0,0,0-4.44-9.89,16,16,0,0,0-10.51-3.66,22.83,22.83,0,0,0-10.51,2.41,28.57,28.57,0,0,0-8.49,6.62L693.23,90.47a43,43,0,0,1,15.26-9.11,54.71,54.71,0,0,1,18.07-3q10.28,0,16.89,2.57A24.51,24.51,0,0,1,754,88.45a29.17,29.17,0,0,1,5.53,12.22,80.85,80.85,0,0,1,1.55,16.74v38.46H739.64Zm-5.76-23.67q-2.65,0-6.62.24a33,33,0,0,0-7.63,1.32,16.76,16.76,0,0,0-6.23,3.27,7.54,7.54,0,0,0-2.57,6.07,6.68,6.68,0,0,0,3.58,6.23,15,15,0,0,0,7.48,2,23.46,23.46,0,0,0,6.61-.93,20,20,0,0,0,5.69-2.65,12.78,12.78,0,0,0,4-4.36,12.6,12.6,0,0,0,1.48-6.22v-5Z" transform="translate(-16.17 -11.08)"/><path class="cls-1" d="M312.33,32.11C298,32,107.57,36.84,80.79,37.53c-.65,0-1.66-.1-2.1-1.74-1.53-5.82-6.17-23-6.17-23a2.81,2.81,0,0,0-2.91-1.68H18.31a2.14,2.14,0,0,0-2.14,2.15V35.89A2.08,2.08,0,0,0,18.31,38H42.48s5.32-.05,6.9,0c1,0,1.32.39,1.56,1.37.5,2.08,36,154.22,36,154.22a6.65,6.65,0,0,0,.79,1.67,2.37,2.37,0,0,0,2.11.89c4.55-.44,16.52-1.64,32.47-3.24a28.78,28.78,0,1,0,38-3.8l51.21-5.11a28.78,28.78,0,1,0,36.79-3.65c9.44-.94,17.75-1.76,24.29-2.39s14-4.79,16.21-6.69c2.8-2.38,3.14-5.24,1.12-8.3-2.21-3.34-5.69-2.58-8.23-1.14-8.58,4.89-23.25,6.59-23.25,6.59L97.79,184.52c-1.41.15-1.92-.26-2.21-1.54-6.8-30.39-36-154.67-36.14-155.27a.87.87,0,0,0-.79-.64h-31a.75.75,0,0,1-.76-.65v-3.9c0-.36.43-.65.78-.65H63.11a.74.74,0,0,1,.75.65c1.86,6.78,5.25,19.65,7,25.87a.82.82,0,0,0,.71.59c11.87-.45,212.78-5.36,230.85-5.35,11.31,0,12.58,3.58,11.07,10.61-.29,1.32-1.14,4.18-1.52,5.47A5.61,5.61,0,0,0,316.16,67c4,1.07,7-1.12,7.65-3.88,0,0,2.72-10.94,3.4-14.17C328.55,42.65,326,32.2,312.33,32.11ZM143.39,226.36a14,14,0,1,1,14-14A14,14,0,0,1,143.39,226.36ZM232,218a14,14,0,1,1,14-14A14,14,0,0,1,232,218Z" transform="translate(-16.17 -11.08)"/></svg>