<svg id="Capa_1" data-name="Capa 1" xmlns="http://www.w3.org/2000/svg" viewBox="0 0 850.39 291.83"><defs><style>.cls-1{fill:#6aaae4;}.cls-2{fill:#e7004c;}</style></defs><title>logotipo SYSpago[1]</title><path class="cls-1" d="M413.21,97.8h27.26v12.64h.4a32.08,32.08,0,0,1,4.63-5.23,35.86,35.86,0,0,1,6.72-4.85,42.39,42.39,0,0,1,8.39-3.55,33.16,33.16,0,0,1,9.68-1.38,49.59,49.59,0,0,1,19.36,3.65,43.18,43.18,0,0,1,14.91,10.27,45.93,45.93,0,0,1,9.58,15.7,57.17,57.17,0,0,1,3.36,20,60.5,60.5,0,0,1-3.06,19.26,53,53,0,0,1-8.69,16.29A42.3,42.3,0,0,1,492,191.91a38.88,38.88,0,0,1-18.37,4.25,50.86,50.86,0,0,1-17.28-2.87,27.56,27.56,0,0,1-13.13-9.77h-.4v55.3H413.21Zm27.26,48q0,10.88,6.22,17.58t17.48,6.72q11.26,0,17.48-6.72t6.22-17.58q0-10.84-6.22-17.58t-17.48-6.71q-11.26,0-17.48,6.71T440.47,145.79Z" transform="translate(-18.4 -10.04)"/><path class="cls-1" d="M589.19,181.74h-.39a27.76,27.76,0,0,1-13.14,11.06,45.08,45.08,0,0,1-17.28,3.36,44.54,44.54,0,0,1-12.93-1.87,32.77,32.77,0,0,1-11-5.63,27.35,27.35,0,0,1-7.51-9.29,28.36,28.36,0,0,1-2.76-12.84,29.44,29.44,0,0,1,3.06-14,27.36,27.36,0,0,1,8.3-9.48,41.15,41.15,0,0,1,11.95-5.83,87.37,87.37,0,0,1,13.92-3.06A132.19,132.19,0,0,1,575.86,133q7.21-.21,13.33-.2a15.37,15.37,0,0,0-5.63-12.54,20.25,20.25,0,0,0-13.33-4.64,29,29,0,0,0-13.33,3,36.48,36.48,0,0,0-10.77,8.4l-15.8-16.19a54.39,54.39,0,0,1,19.36-11.56,69.09,69.09,0,0,1,22.91-3.85q13,0,21.43,3.26a31,31,0,0,1,13.43,9.58,36.91,36.91,0,0,1,7,15.5,102.2,102.2,0,0,1,2,21.23v48.79H589.19Zm-7.3-30q-3.36,0-8.4.3a42.36,42.36,0,0,0-9.68,1.67,21.73,21.73,0,0,0-7.9,4.15,9.59,9.59,0,0,0-3.26,7.71,8.48,8.48,0,0,0,4.55,7.9,19,19,0,0,0,9.48,2.56,29.74,29.74,0,0,0,8.39-1.18,25,25,0,0,0,7.21-3.36,16.3,16.3,0,0,0,5-5.53,16.05,16.05,0,0,0,1.87-7.9v-6.32Z" transform="translate(-18.4 -10.04)"/><path class="cls-1" d="M729.83,185.69q0,27.26-13.74,41.38t-41.77,14.12A112.32,112.32,0,0,1,649,238.33a57.19,57.19,0,0,1-22.91-11.16l16.39-24.49A62.39,62.39,0,0,0,657,211.77a41,41,0,0,0,16.69,3.35q13.63,0,20-6.62t6.41-16.88v-9.28h-.39a27.94,27.94,0,0,1-12.74,9.77A40.68,40.68,0,0,1,672.74,195a49.44,49.44,0,0,1-19.36-3.65,43.14,43.14,0,0,1-14.91-10.27,45.74,45.74,0,0,1-9.58-15.7,59.32,59.32,0,0,1-.29-38.52,50.6,50.6,0,0,1,8.69-16A43.36,43.36,0,0,1,651,99.68a38.88,38.88,0,0,1,18.37-4.25,44.7,44.7,0,0,1,20.94,4.93,34.6,34.6,0,0,1,7.11,4.85,30.88,30.88,0,0,1,4.74,5.23h.39V97.8h27.27ZM655.16,145.2A23.12,23.12,0,0,0,662,161.69a25.78,25.78,0,0,0,7.5,5.24,23.1,23.1,0,0,0,18.67,0,25.46,25.46,0,0,0,7.6-5.24,23.28,23.28,0,0,0,0-33,25.83,25.83,0,0,0-7.6-5.24,23.1,23.1,0,0,0-18.67,0,26.16,26.16,0,0,0-7.5,5.24,23.12,23.12,0,0,0-6.82,16.49Z" transform="translate(-18.4 -10.04)"/><path class="cls-1" d="M744,145.79a50.25,50.25,0,0,1,4.15-20.74,48.06,48.06,0,0,1,11.35-15.9,50.36,50.36,0,0,1,17-10.17,62.94,62.94,0,0,1,41.68,0,50.41,50.41,0,0,1,17,10.17,47.94,47.94,0,0,1,11.36,15.9,50.25,50.25,0,0,1,4.15,20.74,50.18,50.18,0,0,1-4.15,20.74,47.74,47.74,0,0,1-11.36,15.9,50.11,50.11,0,0,1-17,10.18,62.94,62.94,0,0,1-41.68,0,50.06,50.06,0,0,1-17-10.18,47.85,47.85,0,0,1-11.35-15.9A50.18,50.18,0,0,1,744,145.79Zm29.63,0q0,10.88,6.22,17.58t17.48,6.72q11.26,0,17.48-6.72t6.22-17.58q0-10.84-6.22-17.58t-17.48-6.71q-11.26,0-17.48,6.71T773.67,145.79Z" transform="translate(-18.4 -10.04)"/><path class="cls-2" d="M132.79,154.69c1,.78,2.16,1.83,3.63,3.13a47.29,47.29,0,0,0,5.05,3.88,42.44,42.44,0,0,0,8.42,4.42,24.37,24.37,0,0,0,8.76,1.58,22.81,22.81,0,0,0,7.13-1,12,12,0,0,0,4.54-2.53,9,9,0,0,0,2.38-3.67,13.74,13.74,0,0,0,.71-4.42,6.48,6.48,0,0,0-2-4.62,20.31,20.31,0,0,0-4.8-3.63,40.14,40.14,0,0,0-5.92-2.71q-3.09-1.12-5.33-1.87a122.85,122.85,0,0,1-17.52-7.54,54.07,54.07,0,0,1-12.51-9,32.38,32.38,0,0,1-10-24.21,31.35,31.35,0,0,1,3.13-14.09,30.81,30.81,0,0,1,8.92-10.82,42.16,42.16,0,0,1,14-7,63.29,63.29,0,0,1,18.27-2.46,61.35,61.35,0,0,1,14.55,1.7,55.76,55.76,0,0,1,13.72,5.47q2.84,1.66,5.38,3.46a55.07,55.07,0,0,1,4.46,3.46,21.52,21.52,0,0,1,3.05,3.17,4.59,4.59,0,0,1,1.12,2.58,3.88,3.88,0,0,1-.54,2,12,12,0,0,1-1.63,2.08L187,105.73a4.06,4.06,0,0,1-2.83,1.42,3.68,3.68,0,0,1-2.13-.66,26.18,26.18,0,0,1-2.12-1.67l-.76-.67c-1.11-.94-2.34-1.92-3.71-2.92a33.19,33.19,0,0,0-4.38-2.71,30,30,0,0,0-4.92-2,17.73,17.73,0,0,0-5.25-.79,27.4,27.4,0,0,0-5.17.46,14.25,14.25,0,0,0-4.26,1.46,8.14,8.14,0,0,0-2.92,2.62,7.69,7.69,0,0,0,.09,8,11.5,11.5,0,0,0,3.5,3.17,32.55,32.55,0,0,0,5.8,2.75c2.31.87,5,1.79,8.05,2.79q8.83,2.92,16.3,6.14a54.93,54.93,0,0,1,12.89,7.59,31.28,31.28,0,0,1,8.46,10.46,32.73,32.73,0,0,1,3,14.76,36.39,36.39,0,0,1-3.75,16.64,37.89,37.89,0,0,1-10.3,12.72,48,48,0,0,1-15.38,8.14,61.41,61.41,0,0,1-19,2.87,53.8,53.8,0,0,1-18.85-3.43,72.39,72.39,0,0,1-17.27-9.2,44.39,44.39,0,0,1-5.62-4.76c-1.54-1.57-2.74-2.82-3.63-3.77l-.25-.25a.48.48,0,0,0-.17-.21.86.86,0,0,1-.17-.13.47.47,0,0,0-.16-.21.44.44,0,0,1-.17-.12c-1.28-1.4-1.92-2.51-1.92-3.35s.64-2,1.92-3.18l14.43-13.76a5.46,5.46,0,0,1,2.83-1.25,3.13,3.13,0,0,1,1.59.5A16.62,16.62,0,0,1,132.79,154.69Z" transform="translate(-18.4 -10.04)"/><path class="cls-2" d="M253.35,116.58l20.14-43.12a11,11,0,0,1,.84-1.46,2.63,2.63,0,0,1,.66-.67,1.66,1.66,0,0,1,.72-.24,4.1,4.1,0,0,0,.87-.22h32.11a1.3,1.3,0,0,1,1,.38,1.2,1.2,0,0,1,.38.88,3.23,3.23,0,0,1-1.18,2.08l-39.53,70V190.8q0,3.93-3.82,3.93h-25a3.24,3.24,0,0,1-2.58-1,4.2,4.2,0,0,1-.91-2.88V144L197.6,74.21a3,3,0,0,1-1.09-2.08,1.25,1.25,0,0,1,.34-.88,1.15,1.15,0,0,1,.91-.38h32.11a6.09,6.09,0,0,0,.92.22,1.65,1.65,0,0,1,.67.24,2.82,2.82,0,0,1,.67.67c.22.31.52.79.91,1.46Z" transform="translate(-18.4 -10.04)"/><path class="cls-2" d="M319,154.69c1,.78,2.16,1.83,3.63,3.13a47.29,47.29,0,0,0,5,3.88,42.44,42.44,0,0,0,8.42,4.42,24.37,24.37,0,0,0,8.76,1.58,22.81,22.81,0,0,0,7.13-1,12,12,0,0,0,4.54-2.53,9,9,0,0,0,2.38-3.67,13.74,13.74,0,0,0,.71-4.42,6.48,6.48,0,0,0-2-4.62,20.31,20.31,0,0,0-4.8-3.63,40.14,40.14,0,0,0-5.92-2.71q-3.09-1.12-5.33-1.87a122.85,122.85,0,0,1-17.52-7.54,54.07,54.07,0,0,1-12.51-9,32.38,32.38,0,0,1-10-24.21,31.35,31.35,0,0,1,3.13-14.09,30.81,30.81,0,0,1,8.92-10.82,42.16,42.16,0,0,1,14-7,63.29,63.29,0,0,1,18.27-2.46,61.35,61.35,0,0,1,14.55,1.7,55.91,55.91,0,0,1,13.72,5.47Q377,77,379.54,78.84c1.7,1.2,3.18,2.35,4.46,3.46a21.52,21.52,0,0,1,3.05,3.17,4.59,4.59,0,0,1,1.12,2.58,3.88,3.88,0,0,1-.54,2A12.52,12.52,0,0,1,386,92.14l-12.76,13.59a4.06,4.06,0,0,1-2.83,1.42,3.68,3.68,0,0,1-2.13-.66c-.64-.45-1.35-1-2.13-1.67l-.75-.67c-1.11-.94-2.35-1.92-3.71-2.92a33.19,33.19,0,0,0-4.38-2.71,30,30,0,0,0-4.92-2,17.78,17.78,0,0,0-5.25-.79,27.32,27.32,0,0,0-5.17.46,14.25,14.25,0,0,0-4.26,1.46,8.14,8.14,0,0,0-2.92,2.62,7.69,7.69,0,0,0,.09,8,11.5,11.5,0,0,0,3.5,3.17,32.55,32.55,0,0,0,5.8,2.75c2.31.87,5,1.79,8.05,2.79q8.83,2.92,16.3,6.14a54.93,54.93,0,0,1,12.89,7.59,31.28,31.28,0,0,1,8.46,10.46,32.73,32.73,0,0,1,3,14.76,36.39,36.39,0,0,1-3.75,16.64,37.89,37.89,0,0,1-10.3,12.72,48,48,0,0,1-15.38,8.14,61.41,61.41,0,0,1-19,2.87,53.8,53.8,0,0,1-18.85-3.43,72.2,72.2,0,0,1-17.27-9.2,44.39,44.39,0,0,1-5.62-4.76c-1.54-1.57-2.74-2.82-3.63-3.77l-.25-.25a.48.48,0,0,0-.17-.21.86.86,0,0,1-.17-.13.47.47,0,0,0-.16-.21.44.44,0,0,1-.17-.12c-1.28-1.4-1.92-2.51-1.92-3.35s.64-2,1.92-3.18l14.43-13.76a5.46,5.46,0,0,1,2.83-1.25,3.13,3.13,0,0,1,1.59.5A17.45,17.45,0,0,1,319,154.69Z" transform="translate(-18.4 -10.04)"/><path class="cls-1" d="M394.09,36.72c-18.22-.12-259.74,6-293.72,6.87-.82,0-2.11-.12-2.66-2.21C95.77,34,89.89,12.17,89.89,12.17,89.51,11,88.29,10,86.19,10H21.12a2.72,2.72,0,0,0-2.72,2.72V41.5a2.64,2.64,0,0,0,2.72,2.64H51.77s6.75-.07,8.75-.06c1.28,0,1.68.5,2,1.74.64,2.64,45.6,195.63,45.6,195.63a8.5,8.5,0,0,0,1,2.12,3,3,0,0,0,2.68,1.14L153,240.6a36.5,36.5,0,1,0,48.17-4.82c21.12-2.12,43.64-4.37,65-6.49a36.51,36.51,0,1,0,46.66-4.63c12-1.19,22.52-2.23,30.82-3s17.72-6.08,20.56-8.49c3.55-3,4-6.64,1.42-10.52-2.8-4.25-7.21-3.28-10.43-1.46-10.89,6.21-29.5,8.36-29.5,8.36L121.93,230.06c-1.78.18-2.43-.34-2.79-2-8.63-38.55-45.65-196.21-45.85-197a1.1,1.1,0,0,0-1-.8H33a1,1,0,0,1-1-.82v-5c0-.45.54-.82,1-.82H78a1,1,0,0,1,1,.83c2.36,8.6,6.66,24.92,8.93,32.81a1,1,0,0,0,.9.74c15.06-.56,269.91-6.79,292.84-6.78,14.34,0,15.95,4.55,14,13.46-.36,1.68-1.44,5.3-1.92,7A7.12,7.12,0,0,0,398.94,81c5.09,1.36,8.86-1.42,9.72-4.92,0,0,3.44-13.88,4.31-18C414.66,50.09,411.37,36.82,394.09,36.72ZM179.79,283.13a17.76,17.76,0,1,1,17.76-17.76A17.77,17.77,0,0,1,179.79,283.13Zm112.42-10.55A17.77,17.77,0,1,1,310,254.81,17.77,17.77,0,0,1,292.21,272.58Z" transform="translate(-18.4 -10.04)"/><path class="cls-1" d="M859.74,77.34a9,9,0,1,0,9,9A9,9,0,0,0,859.74,77.34Zm0,16.61a7.57,7.57,0,1,1,7.57-7.57A7.57,7.57,0,0,1,859.74,94Z" transform="translate(-18.4 -10.04)"/><path class="cls-1" d="M856.94,81.71h2.3a9.07,9.07,0,0,1,1.28.08,3.43,3.43,0,0,1,1.15.33,2,2,0,0,1,.83.74,2.39,2.39,0,0,1,.31,1.32,2.17,2.17,0,0,1-.59,1.6,2.85,2.85,0,0,1-1.65.78l2.55,4.13h-1.31l-2.43-4H858v4h-1.07Zm1.07,4h1l.92,0a3.36,3.36,0,0,0,.87-.16,1.54,1.54,0,0,0,.66-.44,1.23,1.23,0,0,0,.26-.86,1.35,1.35,0,0,0-.19-.77A1.15,1.15,0,0,0,861,83a2,2,0,0,0-.7-.21,6.81,6.81,0,0,0-.78,0H858Z" transform="translate(-18.4 -10.04)"/></svg>