<svg id="Capa_1" data-name="Capa 1" xmlns="http://www.w3.org/2000/svg" viewBox="0 0 289 289"><defs><style>.cls-1{fill:none;stroke:#134695;stroke-miterlimit:10;stroke-width:20px;}.cls-2{fill:#fefefe;}.cls-3{fill:#070707;}.cls-4{fill:#fede06;}</style></defs><title>UNEFON</title><rect class="cls-1" x="10" y="10" width="269" height="269"/><path class="cls-2" d="M145.11,154.84c-.88,0-1.61.06-2.33,0a5.74,5.74,0,0,0-5.31,2.16c-5.17,5.71-14.71,4.07-18-2.82-.64-1.35-.72-1.94,1.15-1.91,7.48.09,15,0,22.44,0,3.29,0,3.32,0,3.07-3.39-.5-6.82-3.88-11.76-10.16-14.38a15.83,15.83,0,0,0-17.41,2.78c-5,4.36-6.71,10-5.09,16.48a16.53,16.53,0,0,0,15.65,12.14C136.33,166.07,143,161.52,145.11,154.84ZM82.6,139.55V127.32c0-3.47,0-3.34-3.37-3.52-1.87-.1-2.16.54-2.14,2.22.08,8.75,0,17.51,0,26.26a7.49,7.49,0,0,1-3.07,6.61,7.32,7.32,0,0,1-8,.66A7.1,7.1,0,0,1,62,152.76q0-12.63,0-25.25c0-3.67,0-3.56-3.62-3.7-1.67-.07-1.91.53-1.9,2,.07,8.95,0,17.91,0,26.86a13.06,13.06,0,1,0,26.11.11C82.64,148.37,82.6,144,82.6,139.55Zm76.85,9.95A16.63,16.63,0,1,0,176,133.16,16.5,16.5,0,0,0,159.45,149.5Zm-48.63,4.44c-.2-3.22.49-7.13-.39-10.94a13.08,13.08,0,0,0-25.75,3c-.09,5.21,0,10.42,0,15.63,0,3.92,0,3.86,3.85,3.88,1.3,0,1.7-.34,1.68-1.67-.07-5.74,0-11.48,0-17.23,0-4.72,3.17-8,7.61-8s7.57,3.3,7.59,8.05c0,5,0,10,0,15,0,3.89,0,3.8,3.88,3.85,1.45,0,1.62-.56,1.6-1.75C110.78,160.73,110.82,157.66,110.82,153.94Zm84,.51v7.41c0,3.68,0,3.58,3.63,3.69,1.57,0,1.87-.46,1.85-1.91-.07-5.74-.06-11.48,0-17.23a7.46,7.46,0,0,1,7.64-7.78c4.37,0,7.48,3.25,7.5,7.88,0,5.07,0,10.15,0,15.22,0,3.87,0,3.82,3.93,3.81,1.2,0,1.61-.27,1.6-1.55-.07-6.07,0-12.15,0-18.23a13,13,0,0,0-26.08.07C194.74,148.7,194.77,151.58,194.77,154.45ZM148.23,148v13.83c0,3.68,0,3.58,3.6,3.7,1.64.06,2-.48,2-2-.08-6.88,0-13.76,0-20.64,0-3.65,0-3.76,3.64-3.62,1.67.06,1.95-.54,1.91-2-.09-3.41,0-3.39-3.49-3.44-.66,0-1.61.46-2-.41a2.7,2.7,0,0,1,.45-2.47,2.83,2.83,0,0,1,2.67-1.5c2.33.35,2.49-.92,2.31-2.65a9.84,9.84,0,0,1,0-1.8c.07-.87-.26-1.1-1.13-1.15a9.07,9.07,0,0,0-9.92,9.16C148.2,138,148.23,143,148.23,148Zm82.16,14c0-.8,0-1.59,0-2.39-.1-1.87-1-2.65-3-2.68s-3.06.72-3.15,2.7c-.07,1.39-.05,2.79,0,4.18.05,2.21.84,2.95,3.07,2.94s3-.76,3.06-3C230.41,163.2,230.39,162.6,230.39,162ZM273,138c0-.8,0-1.6,0-2.39-.07-1.86-1.18-2.51-2.89-2.52-2.09,0-3.06.67-3.15,2.44-.08,1.39,0,2.79,0,4.18,0,2.4.79,3.22,3,3.23s3.05-.83,3.08-3.15C273,139.19,273,138.59,273,138Zm-34.49,11.81c0-.79,0-1.59,0-2.39-.1-1.83-1-2.6-3-2.6s-2.95.75-3,2.58c-.06,1.4,0,2.79,0,4.18,0,2.33.83,3.12,3.11,3.09s2.91-.82,2.95-3.07C238.52,151,238.51,150.41,238.51,149.81Zm17.25-.08c0-.73,0-1.46,0-2.18-.08-2-1-2.76-3.1-2.73s-2.88.78-2.94,2.66c-.05,1.33,0,2.65,0,4,0,2.42.75,3.21,3,3.21s3-.78,3.06-3.14C255.77,150.93,255.76,150.33,255.76,149.73Zm8.84.09c0-.8,0-1.59,0-2.39-.09-1.84-1-2.61-3-2.61s-3,.75-3,2.57c-.06,1.4,0,2.79,0,4.18,0,2.33.84,3.13,3.11,3.1s2.91-.81,3-3.06C264.61,151,264.6,150.42,264.6,149.82Zm8.4,0h0c0-.87.06-1.73,0-2.59-.14-1.88-1.4-2.38-3.05-2.38s-2.91.54-3,2.43c-.06,1.46,0,2.92,0,4.38,0,2.25.8,3,3,3s3.08-.78,3.11-3.1C273,151,273,150.37,273,149.78Zm-40.55,11.94c0,.87,0,1.74,0,2.6.12,1.86,1.24,2.45,3,2.46s2.92-.53,3-2.39c.1-1.39,0-2.8,0-4.21,0-2.43-.78-3.24-3-3.25s-3,.79-3.05,3.18C232.44,160.65,232.44,161.18,232.45,161.72Zm8.83.09h0c0,.86,0,1.73,0,2.59.15,1.85,1.32,2.37,3,2.38s2.89-.56,3-2.4c.1-1.45.05-2.92,0-4.37,0-2.26-.8-3-2.95-3.08s-3.08.77-3.11,3.09C241.28,160.62,241.28,161.21,241.28,161.81Zm8.43-.07c0,.86-.05,1.74,0,2.6.12,1.86,1.27,2.43,3,2.44s2.92-.54,3-2.4c.09-1.4,0-2.81,0-4.21,0-2.43-.78-3.24-3-3.24s-3,.78-3,3.2C249.7,160.67,249.71,161.2,249.71,161.74Zm17.22,0h0c0,.87-.05,1.73,0,2.59.13,1.77,1.05,2.4,3.18,2.41,1.74,0,2.81-.7,2.87-2.53.05-1.32,0-2.65,0-4,0-2.51-.8-3.35-3.1-3.32s-2.95.81-3,3.24C266.92,160.7,266.93,161.23,266.93,161.76Zm-2.33.06c0-.73,0-1.47,0-2.2-.09-1.92-.93-2.67-3-2.69s-3,.74-3.09,2.76c-.05,1.33,0,2.67,0,4,0,2.29.78,3.05,3,3.06s3.07-.73,3.1-3.12C264.61,163,264.6,162.42,264.6,161.82Z" transform="translate(-17.3 -8.93)"/><path class="cls-3" d="M145.11,154.84c-2.07,6.68-8.78,11.23-16,11.08a16.53,16.53,0,0,1-15.65-12.14c-1.62-6.46,0-12.12,5.09-16.48A15.83,15.83,0,0,1,136,134.52c6.28,2.62,9.66,7.56,10.16,14.38.25,3.39.22,3.39-3.07,3.39-7.48,0-15,.06-22.44,0-1.87,0-1.79.56-1.15,1.91,3.29,6.89,12.83,8.53,18,2.82a5.74,5.74,0,0,1,5.31-2.16C143.5,154.9,144.23,154.84,145.11,154.84Zm-15.57-8.05c3.07,0,6.14,0,9.21,0,1.27,0,1.48-.32,1-1.47a11.2,11.2,0,0,0-20.54,0c-.52,1.32,0,1.44,1.09,1.43C123.4,146.76,126.47,146.79,129.54,146.79Z" transform="translate(-17.3 -8.93)"/><path class="cls-3" d="M82.6,139.55c0,4.41,0,8.82,0,13.23a13.06,13.06,0,1,1-26.11-.11c0-8.95,0-17.91,0-26.86,0-1.47.23-2.07,1.9-2,3.62.14,3.62,0,3.62,3.7q0,12.63,0,25.25a7.1,7.1,0,0,0,4.13,6.79,7.32,7.32,0,0,0,8-.66,7.49,7.49,0,0,0,3.07-6.61c0-8.75,0-17.51,0-26.26,0-1.68.27-2.32,2.14-2.22,3.37.18,3.37,0,3.37,3.52Z" transform="translate(-17.3 -8.93)"/><path class="cls-3" d="M159.45,149.5a16.63,16.63,0,1,1,16.45,16.42A16.52,16.52,0,0,1,159.45,149.5Zm16.87,10.91a10.9,10.9,0,1,0-11.43-10.72A11,11,0,0,0,176.32,160.41Z" transform="translate(-17.3 -8.93)"/><path class="cls-3" d="M110.82,153.94c0,3.72,0,6.79,0,9.86,0,1.19-.15,1.77-1.6,1.75-3.88-.05-3.88,0-3.88-3.85,0-5,0-10,0-15,0-4.75-3.16-8.05-7.59-8.05s-7.59,3.29-7.61,8c0,5.75,0,11.49,0,17.23,0,1.33-.38,1.68-1.68,1.67-3.85,0-3.85,0-3.85-3.88,0-5.21-.07-10.42,0-15.63a13.08,13.08,0,0,1,25.75-3C111.31,146.81,110.62,150.72,110.82,153.94Z" transform="translate(-17.3 -8.93)"/><path class="cls-3" d="M194.77,154.45c0-2.87,0-5.75,0-8.62a13,13,0,0,1,26.08-.07c.08,6.08,0,12.16,0,18.23,0,1.28-.4,1.55-1.6,1.55-3.93,0-3.93.06-3.93-3.81,0-5.07,0-10.15,0-15.22,0-4.63-3.13-7.87-7.5-7.88a7.46,7.46,0,0,0-7.64,7.78c0,5.75,0,11.49,0,17.23,0,1.45-.28,2-1.85,1.91-3.63-.11-3.63,0-3.63-3.69Z" transform="translate(-17.3 -8.93)"/><path class="cls-3" d="M148.23,148c0-5,0-10,0-15a9.07,9.07,0,0,1,9.92-9.16c.87,0,1.2.28,1.13,1.15a9.84,9.84,0,0,0,0,1.8c.18,1.73,0,3-2.31,2.65a2.83,2.83,0,0,0-2.67,1.5,2.7,2.7,0,0,0-.45,2.47c.35.87,1.3.4,2,.41,3.47.05,3.4,0,3.49,3.44,0,1.48-.24,2.08-1.91,2-3.64-.14-3.64,0-3.64,3.62,0,6.88,0,13.76,0,20.64,0,1.54-.33,2.08-2,2-3.6-.12-3.6,0-3.6-3.7Z" transform="translate(-17.3 -8.93)"/><path class="cls-4" d="M230.39,162c0,.6,0,1.2,0,1.79-.07,2.2-.86,3-3.06,3s-3-.73-3.07-2.94c0-1.39-.06-2.79,0-4.18.09-2,1-2.73,3.15-2.7s2.86.81,3,2.68C230.43,160.41,230.39,161.2,230.39,162Z" transform="translate(-17.3 -8.93)"/><path class="cls-4" d="M273,138c0,.59,0,1.19,0,1.79,0,2.32-.85,3.17-3.08,3.15s-3-.83-3-3.23c0-1.39-.06-2.79,0-4.18.09-1.77,1.06-2.46,3.15-2.44,1.71,0,2.82.66,2.89,2.52C273,136.4,273,137.2,273,138Z" transform="translate(-17.3 -8.93)"/><path class="cls-4" d="M238.51,149.81c0,.6,0,1.2,0,1.79,0,2.25-.81,3.05-2.95,3.07s-3.08-.76-3.11-3.09c0-1.39,0-2.78,0-4.18.07-1.83,1-2.58,3-2.58s2.92.77,3,2.6C238.54,148.22,238.51,149,238.51,149.81Z" transform="translate(-17.3 -8.93)"/><path class="cls-4" d="M255.76,149.73c0,.6,0,1.2,0,1.8,0,2.36-.8,3.15-3.06,3.14s-3-.79-3-3.21c0-1.33,0-2.65,0-4,.06-1.88.93-2.64,2.94-2.66s3,.76,3.1,2.73C255.79,148.27,255.76,149,255.76,149.73Z" transform="translate(-17.3 -8.93)"/><path class="cls-4" d="M264.6,149.82c0,.6,0,1.19,0,1.79,0,2.25-.81,3-3,3.06s-3.08-.77-3.11-3.1c0-1.39-.05-2.78,0-4.18.08-1.82,1-2.58,3-2.57s2.91.77,3,2.61C264.63,148.23,264.6,149,264.6,149.82Z" transform="translate(-17.3 -8.93)"/><path class="cls-4" d="M273,149.78c0,.59,0,1.19,0,1.79,0,2.32-.84,3.13-3.11,3.1s-2.93-.8-3-3c0-1.46,0-2.92,0-4.38.07-1.89,1.32-2.42,3-2.43s2.91.5,3.05,2.38c.07.86,0,1.72,0,2.59Z" transform="translate(-17.3 -8.93)"/><path class="cls-4" d="M232.45,161.72c0-.54,0-1.07,0-1.61,0-2.39.79-3.19,3.05-3.18s3,.82,3,3.25c0,1.41.07,2.82,0,4.21-.12,1.86-1.33,2.39-3,2.39s-2.86-.6-3-2.46C232.4,163.46,232.45,162.59,232.45,161.72Z" transform="translate(-17.3 -8.93)"/><path class="cls-4" d="M241.28,161.81c0-.6,0-1.19,0-1.79,0-2.32.84-3.12,3.11-3.09s2.92.82,2.95,3.08c0,1.45.07,2.92,0,4.37-.11,1.84-1.29,2.4-3,2.4s-2.87-.53-3-2.38c-.06-.86,0-1.73,0-2.59Z" transform="translate(-17.3 -8.93)"/><path class="cls-4" d="M249.71,161.74c0-.54,0-1.07,0-1.61,0-2.42.77-3.21,3-3.2s3,.81,3,3.24c0,1.4.07,2.81,0,4.21-.11,1.86-1.31,2.4-3,2.4s-2.87-.58-3-2.44C249.66,163.48,249.71,162.6,249.71,161.74Z" transform="translate(-17.3 -8.93)"/><path class="cls-4" d="M266.93,161.76c0-.53,0-1.06,0-1.59,0-2.43.74-3.22,3-3.24s3.09.81,3.1,3.32c0,1.33,0,2.66,0,4-.06,1.83-1.13,2.54-2.87,2.53-2.13,0-3.05-.64-3.18-2.41-.06-.86,0-1.72,0-2.59Z" transform="translate(-17.3 -8.93)"/><path class="cls-4" d="M264.6,161.82c0,.6,0,1.2,0,1.81,0,2.39-.78,3.14-3.1,3.12s-2.93-.77-3-3.06c0-1.33,0-2.67,0-4,.06-2,.94-2.78,3.09-2.76s2.87.77,3,2.69C264.63,160.35,264.6,161.09,264.6,161.82Z" transform="translate(-17.3 -8.93)"/><path class="cls-2" d="M129.54,146.79c-3.07,0-6.14,0-9.21,0-1.12,0-1.61-.11-1.09-1.43a11.2,11.2,0,0,1,20.54,0c.45,1.15.24,1.5-1,1.47C135.68,146.74,132.61,146.79,129.54,146.79Z" transform="translate(-17.3 -8.93)"/><path class="cls-2" d="M176.32,160.41a10.9,10.9,0,1,1,10.88-11A11.06,11.06,0,0,1,176.32,160.41Z" transform="translate(-17.3 -8.93)"/></svg>