<svg id="Capa_1" data-name="Capa 1" xmlns="http://www.w3.org/2000/svg" viewBox="0 0 554.08 566.93"><defs><style>.cls-1{fill:#134695;}</style></defs><title>AGUA</title><path class="cls-1" d="M286.54,299c-14.26,0-28.51-.33-42.73.08-15.46.46-29.49-2.77-41.22-13.42-3.44-3.12-7.65-2.46-11.69-2.46q-75.68,0-151.35,0c-12.4,0-12.4,0-12.42-12.11,0-21.51,0-21.51,21.45-21.51q52.24,0,104.49,0c9.49,0,9.7-.33,8.18-9.51-6.9-41.5-5.79-83.09-1.14-124.7.63-5.59,1.07-11.23,2.19-16.73,1.35-6.58-.25-9-7.56-8.88-36.1.36-72.22.16-108.32.16-3.59,0-7.19-.23-10.76,0-6.15.47-9.07-1.79-8.6-8.3.37-5.09.06-10.24.07-15.36,0-10.73.05-10.77,10.53-10.77q63.39,0,126.77,0c10,0,20-.18,30,.06,4.68.12,7.39-1.56,9.66-5.76,6.24-11.54,14.86-18.61,29.44-17.6,16,1.1,32.17.23,48.26.27,19.55.05,33.1,10.88,44.24,25.39,16.34,21.29,24.32,46.08,28.18,72.21,5.71,38.62,3.45,76.67-11.24,113.25-8.84,22-20.92,41.73-43.53,52.48-5.17,2.46-1.84,4.7.11,6.86,11.68,12.92,23.44,25.75,33.95,39.66,14.68,19.46,28.67,39.38,36.71,62.7,10.64,30.84,2.49,59.12-22.77,79.91-13.87,11.41-29.68,19-46.93,23.75-5.86,1.61-11.66.68-17.5-.36-49.51-8.87-74.36-46.65-62.65-95.67,5.61-23.48,16.8-44.42,30.22-64.28a409,409,0,0,1,32.65-42.65C284.62,304.12,286.69,302.67,286.54,299ZM327.3,164a151.61,151.61,0,0,0-5.13-44.46c-4-14.92-9.35-29.35-20.51-40.66-13-13.15-29.18-12.61-41.53,1.25A76.68,76.68,0,0,0,245,106.66c-12.41,36.19-12.89,72.75-2.78,109.48,4.05,14.71,10.25,28.4,22,38.83,9.71,8.6,21.85,9.37,32.4,1.83,6.82-4.87,11.55-11.55,15.4-18.85C324,215.39,327.67,191.07,327.3,164ZM236.5,438.47c0,24.63,14.94,42.53,44.37,48,13.36,2.49,25.91-.08,38.19-5.19,32.1-13.37,45-42.92,32.45-75.33-11.45-29.64-31-53.89-51.85-77.32-3.93-4.41-6.74-3-9.94.69-15,17.24-28.72,35.34-39.29,55.65C242.57,400.08,236.32,415.69,236.5,438.47ZM231.38,63.84c-5.95,2.43-9.52,6.87-12.76,11.21C176.11,132,172,208.15,225.5,268.1c2.36,2.65,4.9,5,8.41,3.72C197.36,202.86,197.14,134,231.38,63.84Z" transform="translate(-18.62 -32.11)"/><path class="cls-1" d="M81,545.79c16.45-.12,30.19,4,42.16,12.4,20.26,14.18,39.95,14.16,60.76,1.08,28.38-17.83,57-17.14,85.14,1.12,19.34,12.56,38.37,11.73,57.54-.63,21.95-14.16,45.44-18.4,70.24-8.53,8.28,3.29,15.89,8.23,23.83,12.35,16.46,8.55,32.65,7.82,48-2.39,27.83-18.52,56.12-20.11,85.28-3.42,5.1,2.92,10.36,5.59,15.56,8.34,3.42,1.81,4,4.22,2.05,7.57q-4.19,7.34-8,14.86c-2.05,4-4.64,4.94-8.68,2.62-5.78-3.3-11.75-6.24-17.63-9.38-16.82-9-33.42-8.89-49.38,1.85-29,19.51-58.48,20.19-87.86,1.66-20.22-12.75-39.38-12.94-59.59,0-28.67,18.36-57.84,18.42-86.58-.27-18.7-12.16-37.09-12.48-56.07-.36-29.58,18.9-59.24,18.63-88.54-.94-16.5-11-33.43-11.31-50.83-2.24-7.71,4-15.65,7.64-23.27,11.83C30.35,596,28,594.55,25.56,590c-10.42-19.35-10.46-19.14,9.31-29.34C50,552.89,65.07,545.42,81,545.79Z" transform="translate(-18.62 -32.11)"/><path class="cls-1" d="M138,478.13c-12.74-.51-26.27-4.27-37.47-13.62-14.76-12.32-30.76-16.86-49.21-10.05-3.58,1.32-5.84.37-7.43-3-1.75-3.71-3.7-7.31-5.53-11-5.22-10.42-5.05-11.13,6.43-14.61,25-7.56,48.07-3.51,69,12.19,19.15,14.38,31.72,14.62,51.57.82,14.67-10.2,12.21-8,20.32,3.39,10.63,15,9.06,11.26-3.39,20.4C169.51,472,155.65,478,138,478.13Z" transform="translate(-18.62 -32.11)"/><path class="cls-1" d="M453.14,479.81c-19.7.13-35.08-10-50.05-21.05a4.21,4.21,0,0,1-1.26-6.07c.26-.44.53-.87.78-1.32,10.93-20.14,11.13-20.19,30-7.74,15,9.88,30,9.52,44-1.7q33.62-26.91,74.31-13.54c8.95,2.92,9.36,4.38,4.61,12.58-2.94,5.07-4,12.17-9,14.88s-10.6-2.15-16.18-2.67a44.78,44.78,0,0,0-33.63,10.18C484,473.84,469.56,479.42,453.14,479.81Z" transform="translate(-18.62 -32.11)"/><path class="cls-1" d="M294.68,462c-8.92-.13-18.68-1.74-26.45-9.11-6.51-6.19-6.44-13.09-.1-19.41,12.53-12.49,44.57-12.38,56.92.19,6,6.11,6.15,12.91.05,18.87C317,460.44,306.71,462,294.68,462Z" transform="translate(-18.62 -32.11)"/></svg>