<?xml version="1.0" encoding="utf-8"?>
<!-- Generator: Adobe Illustrator 24.0.2, SVG Export Plug-In . SVG Version: 6.00 Build 0)  -->
<svg version="1.1" id="Capa_1" xmlns="http://www.w3.org/2000/svg" xmlns:xlink="http://www.w3.org/1999/xlink" x="0px" y="0px"
	 viewBox="0 0 577.53 447.32" style="enable-background:new 0 0 577.53 447.32;" xml:space="preserve">
<style type="text/css">
	.st0{fill:#134695;}
</style>
<g>
	<path class="st0" d="M407.8,20.96H66.45C32.68,20.96,5.3,48.34,5.3,82.11v182.94c0,33.77,27.38,61.15,61.15,61.15H407.8
		c33.77,0,61.15-27.38,61.15-61.15V82.11C468.95,48.34,441.57,20.96,407.8,20.96z M241.2,253.41c-41.52,0-75.18-33.66-75.18-75.18
		s33.66-75.18,75.18-75.18c41.52,0,75.18,33.66,75.18,75.18S282.72,253.41,241.2,253.41z"/>
	<path class="st0" d="M83.81,368.42v57.03h431.06c0,0,56.29,5.18,57.03-46.66s0-272.56,0-272.56h-48.88v269.6L83.81,368.42z"/>
</g>
</svg>
