<?xml version="1.0" encoding="utf-8"?>
<!-- Generator: Adobe Illustrator 24.0.2, SVG Export Plug-In . SVG Version: 6.00 Build 0)  -->
<svg version="1.1" id="Capa_1" xmlns="http://www.w3.org/2000/svg" xmlns:xlink="http://www.w3.org/1999/xlink" x="0px" y="0px"
	 viewBox="0 0 577.53 584.43" style="enable-background:new 0 0 577.53 584.43;" xml:space="preserve">
<style type="text/css">
	.st0{fill:#134695;}
</style>
<path class="st0" d="M227.74,15.11C119.53,37.67,34.23,122.97,11.67,231.18c-38.2,183.21,100.61,344.49,277.09,344.49
	c2.07,0,0.01,0.04,2.07,0l7.92-26.54c1.5-2.41,1.63-4.79,2.02-6.12l1.11-131.22l84.6-72.91V230.06h-31.42v-78.21h-39.17v78.21
	h-54.27v-78.21h-34.69v78.21h-42.85v117.25l78.37,63.78l-1.05,130.73C133.38,527.98,34.2,417.91,37.76,285.4
	C41.32,152.63,149.62,44.62,282.39,41.39c141.49-3.45,257.27,110.22,257.27,250.92c0,92.63-50.18,173.52-124.83,217.01l-6.05,39.74
	c96.55-45.19,163.45-143.2,163.45-256.86C572.23,115.72,410.95-23.09,227.74,15.11z M258.9,367.42l-46.93-41.62l0.03-74.91h144.01
	v67.97l-55.5,48.56H258.9z"/>
</svg>
