<svg id="Capa_1" data-name="Capa 1" xmlns="http://www.w3.org/2000/svg" viewBox="0 0 551.99 566.93"><defs><style>.cls-1{fill:#134695;}</style></defs><title>gobierno</title><path class="cls-1" d="M286,8.5h-9.5v92.21H286V75.38h78.17V8.5Zm70.46,55.84H286V17.59h70.46Z" transform="translate(-8.39 -8.5)"/><path class="cls-1" d="M437,422.82V392h8.28a24.84,24.84,0,1,0,0-49.68H409.72v-74h8.77a24.84,24.84,0,0,0,0-49.68H394.14v-3.29A114.58,114.58,0,0,0,279.56,100.71h0A114.58,114.58,0,0,0,165,215.29v3.29H151.59a24.84,24.84,0,0,0,0,49.68h5v74h-32.8a24.84,24.84,0,0,0-2.43,49.56v31H8.39V444.9H27.87V575.43h513V441.89h19.49V422.82ZM44.11,482.89H87.62v30.52H44.11ZM121.39,565H44.11V526.4H100V470.55H44.11V444.9h77.28ZM387.71,214.76H345.5c-9.84-76.69-44.25-100.74-61.56-108A108.13,108.13,0,0,1,387.71,214.76Zm-54.47,0H230.13c1.49-16.78,9.54-84.09,43.71-101.39C322.17,109.5,331.71,195.57,333.24,214.76ZM265.51,107.55c-13.08,8.34-37.59,33.66-43.47,107.21H171.41A108.15,108.15,0,0,1,265.51,107.55ZM140.87,243.09a15.75,15.75,0,0,1,15.75-15.75H415.41a15.75,15.75,0,0,1,0,31.5H156.62A15.75,15.75,0,0,1,140.87,243.09ZM401,269.48v69.16H165V269.48ZM274.08,565H225.37V441.89h48.71Zm58,0H280.9V441.89H332Zm92,0H339.59V436.45H218.46V565H131.13V392H424ZM130.28,380.77a13.64,13.64,0,0,1,0-27.28H438.83a13.64,13.64,0,0,1,0,27.28H130.28ZM437,565V441.89h84.42v28.66H476V526.4h45.46V565Zm84.42-81.5v30.52H488.3V483.54Z" transform="translate(-8.39 -8.5)"/></svg>