<svg id="Capa_1" data-name="Capa 1" xmlns="http://www.w3.org/2000/svg" viewBox="0 0 343.16 253.63"><defs><style>.cls-1{fill:#e7004c;}.cls-2{fill:#ffa400;}</style></defs><title>LOGO SYSTIENDA solo carrito</title><path class="cls-1" d="M113.31,168c.82.68,1.88,1.58,3.15,2.72a42.14,42.14,0,0,0,4.41,3.37,36.23,36.23,0,0,0,7.32,3.84,21.49,21.49,0,0,0,7.61,1.38,19.69,19.69,0,0,0,6.19-.84,10.3,10.3,0,0,0,3.95-2.21A7.77,7.77,0,0,0,148,173a11.92,11.92,0,0,0,.61-3.84,5.69,5.69,0,0,0-1.7-4,18,18,0,0,0-4.17-3.15,34.66,34.66,0,0,0-5.15-2.35c-1.78-.65-3.3-1.19-4.63-1.63a105.93,105.93,0,0,1-15.22-6.55,47,47,0,0,1-10.86-7.81,28.2,28.2,0,0,1-8.73-21,27.3,27.3,0,0,1,2.72-12.24,26.74,26.74,0,0,1,7.71-9.41,36.52,36.52,0,0,1,12.13-6,54.61,54.61,0,0,1,15.87-2.2A52.39,52.39,0,0,1,149.3,94.3a48.19,48.19,0,0,1,11.92,4.75c1.64,1,3.2,2,4.68,3a44.89,44.89,0,0,1,3.86,3,18.06,18.06,0,0,1,2.65,2.74,4,4,0,0,1,1,2.21,3.35,3.35,0,0,1-.47,1.74,11.27,11.27,0,0,1-1.41,1.81l-11.1,11.86a3.6,3.6,0,0,1-2.46,1.23,3.22,3.22,0,0,1-1.85-.58c-.55-.39-1.17-.87-1.84-1.45l-.66-.58c-1-.82-2-1.67-3.22-2.54a31,31,0,0,0-3.81-2.36,26.33,26.33,0,0,0-4.27-1.73,15.41,15.41,0,0,0-4.58-.69,23.26,23.26,0,0,0-4.48.4,12.76,12.76,0,0,0-3.7,1.26,7.16,7.16,0,0,0-2.54,2.29,6.66,6.66,0,0,0,.08,6.95,9.58,9.58,0,0,0,3,2.73,26.73,26.73,0,0,0,5,2.39c2,.75,4.33,1.57,7,2.44q7.72,2.53,14.17,5.32a48.1,48.1,0,0,1,11.2,6.62,27.25,27.25,0,0,1,7.35,9.09,28.5,28.5,0,0,1,2.64,12.83,31.79,31.79,0,0,1-3.3,14.46,33.1,33.1,0,0,1-9,11,41.94,41.94,0,0,1-13.37,7.08,53.64,53.64,0,0,1-16.54,2.49,46.91,46.91,0,0,1-16.37-3,63,63,0,0,1-15-7.93A39.48,39.48,0,0,1,99.15,189c-1.33-1.35-2.39-2.45-3.15-3.3l-.22-.23a.35.35,0,0,0-.15-.17.83.83,0,0,1-.15-.11.45.45,0,0,0-.14-.19.4.4,0,0,1-.15-.1A5.11,5.11,0,0,1,93.53,182a4.06,4.06,0,0,1,1.66-2.76l12.54-12a4.72,4.72,0,0,1,2.46-1.1,2.69,2.69,0,0,1,1.38.42A16,16,0,0,1,113.31,168Z" transform="translate(-13.92 -42.29)"/><path class="cls-1" d="M218.05,134.85l17.5-37.47a8.89,8.89,0,0,1,.73-1.27,2.17,2.17,0,0,1,.58-.59,1.7,1.7,0,0,1,.62-.22,4,4,0,0,0,.76-.17h27.88a1.06,1.06,0,0,1,.84.33,1,1,0,0,1,.32.76,2.77,2.77,0,0,1-1,1.81L232,158.83v40.51q0,3.41-3.31,3.4H206.93a2.84,2.84,0,0,1-2.21-.9,3.71,3.71,0,0,1-.79-2.5V158.69L169.65,98.07a2.63,2.63,0,0,1-.93-1.81,1.07,1.07,0,0,1,.28-.76,1.06,1.06,0,0,1,.8-.33h27.9a5.45,5.45,0,0,0,.8.18,1.58,1.58,0,0,1,.58.22,2.28,2.28,0,0,1,.58.58c.19.27.46.69.8,1.27Z" transform="translate(-13.92 -42.29)"/><path class="cls-1" d="M275.12,168c.82.68,1.87,1.58,3.15,2.72a42.47,42.47,0,0,0,4.41,3.37,36.75,36.75,0,0,0,7.32,3.84,21.43,21.43,0,0,0,7.6,1.38,19.78,19.78,0,0,0,6.21-.84,10.32,10.32,0,0,0,3.94-2.21,7.72,7.72,0,0,0,2.06-3.18,11.66,11.66,0,0,0,.62-3.84,5.62,5.62,0,0,0-1.71-4,17.7,17.7,0,0,0-4.15-3.15,35.71,35.71,0,0,0-5.15-2.35c-1.79-.65-3.31-1.19-4.64-1.63a107.72,107.72,0,0,1-15.22-6.55,47.85,47.85,0,0,1-10.87-7.81,28.17,28.17,0,0,1-8.72-21,27.28,27.28,0,0,1,2.73-12.24,26.74,26.74,0,0,1,7.71-9.41,36.52,36.52,0,0,1,12.13-6,54.49,54.49,0,0,1,15.86-2.2,52.35,52.35,0,0,1,12.65,1.49A47.89,47.89,0,0,1,323,99c1.64,1,3.2,2,4.68,3a48.88,48.88,0,0,1,3.87,3,17.68,17.68,0,0,1,2.65,2.75,4,4,0,0,1,1,2.2,3.3,3.3,0,0,1-.47,1.74,11.34,11.34,0,0,1-1.31,1.91l-11.14,11.82a3.6,3.6,0,0,1-2.47,1.23,3.21,3.21,0,0,1-1.84-.58c-.64-.45-1.26-.94-1.85-1.45l-.65-.58c-1-.82-2-1.67-3.23-2.54a29,29,0,0,0-3.8-2.36,26.07,26.07,0,0,0-4.28-1.73,15.6,15.6,0,0,0-4.56-.69,23.46,23.46,0,0,0-4.5.4,12.8,12.8,0,0,0-3.69,1.26,7.22,7.22,0,0,0-2.53,2.29,6.62,6.62,0,0,0,.07,6.95,9.91,9.91,0,0,0,3,2.76,28.44,28.44,0,0,0,5.05,2.39q3,1.09,7,2.43,7.72,2.53,14.17,5.33a47.46,47.46,0,0,1,11.19,6.61,27.4,27.4,0,0,1,7.37,9.09,28.82,28.82,0,0,1,2.63,12.83A31.8,31.8,0,0,1,336,183.53a33,33,0,0,1-8.95,11,42,42,0,0,1-13.36,7.08,53.34,53.34,0,0,1-16.54,2.49,47,47,0,0,1-16.38-3,62.75,62.75,0,0,1-14.95-7.95A38,38,0,0,1,261,189q-2-2-3.16-3.3l-.22-.23a.29.29,0,0,0-.14-.17l-.14-.11a.7.7,0,0,0-.15-.19.45.45,0,0,1-.14-.1,5.14,5.14,0,0,1-1.68-2.91,4.12,4.12,0,0,1,1.68-2.76l12.53-12a4.75,4.75,0,0,1,2.47-1.1,2.66,2.66,0,0,1,1.37.42A14.83,14.83,0,0,1,275.12,168Z" transform="translate(-13.92 -42.29)"/><path class="cls-2" d="M340.33,65.46c-15.79-.12-225.67,5.21-255.19,6-.72,0-1.83-.11-2.31-1.92C81.14,63.1,76,44.16,76,44.16a3.12,3.12,0,0,0-3.21-1.85H16.28a2.36,2.36,0,0,0-2.36,2.36h0V69.62A2.29,2.29,0,0,0,16.18,72H42.92s5.86-.06,7.6,0c1.1,0,1.46.43,1.72,1.51.55,2.29,39.68,170,39.68,170a7.38,7.38,0,0,0,.87,1.84,2.59,2.59,0,0,0,2.33,1c5-.48,18.2-1.8,35.78-3.57a31.72,31.72,0,1,0,44.83-1.78,34.06,34.06,0,0,0-2.95-2.41l56.44-5.63a31.73,31.73,0,1,0,40.55-4c10.41-1,19.57-1.94,26.77-2.63s15.43-5.28,17.87-7.38c3.09-2.62,3.46-5.77,1.23-9.15-2.43-3.68-6.27-2.84-9.07-1.25-9.45,5.39-25.62,7.26-25.62,7.26L103.88,233.44c-1.56.16-2.12-.29-2.44-1.7C94,198.24,61.76,61.27,61.61,60.61a1,1,0,0,0-.87-.71H26.57a.82.82,0,0,1-.83-.71v-4.3a.85.85,0,0,1,.85-.72H65.65a.82.82,0,0,1,.83.72c2,7.47,5.79,21.66,7.72,28.51a.89.89,0,0,0,.78.65c13.08-.49,234.51-5.91,254.43-5.9,12.46,0,13.86,3.95,12.2,11.7-.32,1.45-1.26,4.61-1.67,6a6.17,6.17,0,0,0,3.88,7.83,6.05,6.05,0,0,0,.73.2c4.41,1.18,7.72-1.23,8.43-4.27,0,0,3-12.06,3.75-15.62C358.21,77.07,355.4,65.56,340.33,65.46ZM154.14,279.55a15.43,15.43,0,1,1,15.43-15.43h0A15.43,15.43,0,0,1,154.14,279.55Zm97.66-9.21a15.43,15.43,0,1,1,15.43-15.43A15.43,15.43,0,0,1,251.8,270.34Z" transform="translate(-13.92 -42.29)"/></svg>