<svg id="Capa_1" data-name="Capa 1" xmlns="http://www.w3.org/2000/svg" viewBox="0 0 566.93 566.93"><defs><style>.cls-1{fill:#134695;}</style></defs><title>loteria</title><path class="cls-1" d="M287.76,13.15C131.21,13.15,4.29,140.06,4.29,296.62S131.21,580.08,287.76,580.08,571.22,453.17,571.22,296.62,444.31,13.15,287.76,13.15ZM167.41,457.49a73.77,73.77,0,1,1,73.76-73.77A73.77,73.77,0,0,1,167.41,457.49ZM213.5,183.15a78.25,78.25,0,1,1,78.25,78.25A78.25,78.25,0,0,1,213.5,183.15ZM401.22,457.49A73.77,73.77,0,1,1,475,383.72,73.76,73.76,0,0,1,401.22,457.49Z" transform="translate(-4.29 -13.15)"/></svg>