<svg id="Capa_1" data-name="Capa 1" xmlns="http://www.w3.org/2000/svg" viewBox="0 0 571.48 577.04"><defs><style>.cls-1{fill:#134695;}</style></defs><title>movilidad</title><path class="cls-1" d="M517.84,454.48a77.13,77.13,0,0,0-47.56,16L407,417.4a63.63,63.63,0,0,0,.09-64.35l58.47-38.6c13.15,12.29,31.67,20,52.24,20,39.88,0,72.26-28.81,72.26-64.35s-32.34-64.36-72.26-64.36-72.26,28.81-72.26,64.36a57.1,57.1,0,0,0,2.12,15.21l-62.22,42.84c-21.29-17-52-27.67-86.11-27.67s-65,10.75-86.34,27.86l4.35-5.09-57.44-41.88a57.92,57.92,0,0,0,3.28-19.21c0-35.55-32.34-64.36-72.26-64.36S18.7,226.65,18.7,262.2,51,326.55,91,326.55c20.13,0,38.32-7.35,51.41-19.18l54.9,37.08c-9.16,12.08-14.37,26-14.37,40.71,0,15.77,5.94,30.53,16.28,43.14l-58.4,46.12A76.76,76.76,0,0,0,91,456.62c-39.89,0-72.26,28.81-72.26,64.36S51.07,585.34,91,585.34s72.26-28.82,72.26-64.36a57.57,57.57,0,0,0-2.35-16L226.33,451c20,11.73,45.4,18.78,73.09,18.78,33.48,0,63.64-10.29,84.88-26.74l64.92,55.88a58.1,58.1,0,0,0-3.56,19.92c0,35.54,32.33,64.35,72.26,64.35s72.26-28.81,72.26-64.35S557.72,454.48,517.84,454.48Zm0-223.59A37.12,37.12,0,1,1,480.72,268h0a37.11,37.11,0,0,1,37.11-37.11ZM91,297.18a37.12,37.12,0,1,1,37.12-37.12h0A37.12,37.12,0,0,1,91,297.18ZM91,556a37.12,37.12,0,1,1,37.12-37.12h0A37.12,37.12,0,0,1,91,556ZM300.26,434.5c-45.27,0-82-22.23-82-49.64s36.69-49.66,82-49.66,81.94,22.24,81.94,49.66S345.51,434.5,300.26,434.5ZM517.84,553.86a37.12,37.12,0,1,1,37.1-37.13h0A37.11,37.11,0,0,1,517.84,553.86Z" transform="translate(-18.7 -8.31)"/><path class="cls-1" d="M306,8.31S229.25,6,195.54,76.88c-19.14,40.25-15.59,87.66,7.51,125.77L304.42,369.9l117-188.38c7.55-12.15,9.7-26,10.46-40.57C434.19,97,411.51,7.55,306,8.31ZM402.25,138.9c-.24,11.61-1.57,22.65-7.12,32.48L308.89,323.72l-82.52-130.5c-18.81-29.74-22.69-67.32-8.82-99.74,24.43-57.12,84-57,84-57C383.28,33.41,403,103.9,402.25,138.9Z" transform="translate(-18.7 -8.31)"/><path class="cls-1" d="M310.44,75a61.44,61.44,0,1,0,61.43,61.45v0A61.43,61.43,0,0,0,310.44,75ZM310,169.75a35.28,35.28,0,1,1,35.27-35.28h0A35.27,35.27,0,0,1,310,169.71Z" transform="translate(-18.7 -8.31)"/></svg>