<svg id="Capa_1" data-name="Capa 1" xmlns="http://www.w3.org/2000/svg" viewBox="0 0 566.93 564.77"><defs><style>.cls-1{fill:#0a4793;}</style></defs><title>mobilidad</title><path class="cls-1" d="M350.77,84.2v41.21c0,9.62,0,9.62-9.35,9.62-2.82,0-5.66-.23-8.45.05-5,.5-6.79-1.45-6.74-6.56.22-20.78.09-41.56.09-62.34,0-8.46,0-8.6-8.33-8.44-9.85.18-19.73-.76-29.53.85-16.1,2.65-21.65,9-22,25.6-.17,7.73.24,15.46-2,23.06-2.86,9.88-8.18,18.14-16.77,23.61-25.66,16.34-51.32,15.86-73.58-6.11a62.8,62.8,0,0,0-9.36-7.71c-8.84-5.92-18-6.23-26.7-.23a165.86,165.86,0,0,0-38,36.4c-5.74,7.54-5.37,11.66-.09,19.77,4.63,7.13,10.47,13.27,16.32,19.35,11.09,11.53,15,24.69,10.36,40.21-6,20.05-16.9,35.21-38.92,39.24a53.32,53.32,0,0,1-15.75.88c-5.68-.64-11.29.19-16.81,1.22-8.39,1.56-13.58,7-14.76,15.27a176.66,176.66,0,0,0,.09,52.05c1.29,8.44,6.6,13.65,15.22,15.5,8.16,1.76,16.39,1.87,24.67,2.06,30.52.73,53.7,31.38,46.44,61.17-2.31,9.48-7.94,16.76-14.94,23.17a84.57,84.57,0,0,0-11,12.07c-6.5,8.81-6.49,15.24-.12,24.09,4.25,5.91,9.49,10.89,14.81,15.76,7.14,6.53,14.18,13.21,22.36,18.48,10.48,6.75,18.19,6.65,28.28-.67,4.26-3.09,8.61-6.28,12.14-10.14,15.23-16.64,33.71-17.05,53.46-11.15,21.26,6.36,33.77,24.11,34.38,48.52a80.68,80.68,0,0,0,1.51,15.2c1.81,8.32,6.56,13.69,15,16,10.4,2.87,21,1.93,31.51,2,4.06,0,3.48-3.19,3.49-5.76q0-26.41,0-52.84c0-1.4.1-2.82,0-4.22-.25-3.55,1.21-5.2,4.9-5.07,4.4.15,8.81.22,13.2,0s5.82,1.61,5.79,5.89c-.14,21.31-.06,42.62-.06,63.93,0,6-.06,12,0,18,0,3-1,4.73-4.25,4.66-18.45-.45-37,1.53-55.34-1.91-23.19-4.37-36.82-19.41-39.12-42.89-.38-3.85-.82-7.71-1-11.57-.67-18.33-7.05-25.37-25.18-28.61-8.18-1.45-14.66.39-20.59,6.32a100.57,100.57,0,0,1-23.86,18.16c-13.72,7.31-27.54,7.62-40.88,0a160.93,160.93,0,0,1-51.75-46.68c-11.1-15.5-10.54-31.51.08-47.29A102.74,102.74,0,0,1,96.9,424.11c8.45-7.5,7.63-16.08,4.19-25.55-3.51-9.7-9.69-15.28-20.28-15.36a157.69,157.69,0,0,1-25.77-2c-22.76-3.95-35.26-15.74-38.74-38.56C13.45,324,13,305.1,16.36,286.41c4.14-23.1,20.12-36.61,43.65-37.6,6-.25,12,0,18-.16,15.17-.34,27.81-14.72,26.27-29.8-.42-4.11-2.82-7.09-5.49-10C91.93,201.51,85,194.23,79.5,185.78c-10.56-16.24-10.79-30.45.63-46.1a175.59,175.59,0,0,1,42.92-41.86c22-15,44.39-12.3,64.82,6.68,2.71,2.51,5.41,5,8.32,7.32,11.76,9.14,30.75,7.43,40.95-3.54,5-5.38,5-12.22,5.45-18.85.4-5.26-.15-10.64.7-15.8,3.86-23.48,19.07-37,43.64-39.37,19.51-1.89,39.06-.62,58.6-1,4.37-.09,5.28,2.34,5.26,6C350.72,54.26,350.76,69.23,350.77,84.2Z" transform="translate(-14 -33.19)"/><path class="cls-1" d="M379.27,222.51c-27.3,0-54.63-.82-81.89.19-37.47,1.39-67.36,17.77-87.81,49.58C187.15,307.17,192.31,354.08,221,384c22.44,23.42,49.89,34.86,82.14,34.93q80.83.17,161.69-.07a16.2,16.2,0,0,1,12.51,5.21c18.32,18.29,36.95,36.27,55.31,54.52,2.85,2.84,5.38,3.5,9.3,2.59a31.74,31.74,0,1,1-22.55,42.52,31.77,31.77,0,0,1,.05-23.24c1-2.75.59-4.52-1.43-6.52q-24.93-24.76-49.68-49.71c-2.72-2.76-5.78-2.88-9.16-2.88-52.14,0-104.28-.12-156.41.06-35.56.12-66.95-10.88-93-35.23-21.3-19.95-33.77-44.73-36.86-74-6.83-64.76,42.28-122.38,108.77-131.12a158.8,158.8,0,0,1,20.55-1q78.47,0,156.94.07a13.61,13.61,0,0,0,10.66-4.41q22.58-23,45.58-45.58c3.23-3.17,4.26-5.92,3.07-10.59-3.22-12.61-.17-23.8,10.08-32.33s21.63-10,33.61-4.62c12.34,5.5,18.42,15.76,18.71,28.93.46,20.74-20.31,36.27-40.44,30.35-4.3-1.27-6.71-.26-9.62,2.62-18.17,18-36.55,35.67-54.72,53.61a14.83,14.83,0,0,1-11.27,4.57c-28.53-.13-57.07-.07-85.6-.07Z" transform="translate(-14 -33.19)"/><path class="cls-1" d="M426.82,327.1c-28.89,0-57.78.06-86.66-.07-4.14,0-6.66,1.22-8.91,4.93a30.26,30.26,0,0,1-55.81-16.18c0-13.79,8.59-25.61,21.46-29.37,13.27-3.87,27.4,1.14,34.45,13,2.45,4.1,5.09,5.35,9.65,5.34q85.33-.21,170.69,0c4.64,0,7.62-1,10.21-5.38,7-11.85,21.29-16.84,34.42-12.81,12.82,3.93,21.88,16.18,21.72,29.36a31.17,31.17,0,0,1-22.21,29,30.2,30.2,0,0,1-34.28-13.44c-2-3.41-4.34-4.45-8.06-4.43C484.6,327.15,455.71,327.1,426.82,327.1Z" transform="translate(-14 -33.19)"/></svg>