<svg id="Capa_1" data-name="Capa 1" xmlns="http://www.w3.org/2000/svg" viewBox="0 0 566.93 495.77"><defs><style>.cls-1{fill:#134695;}</style></defs><title>tv e internet</title><path class="cls-1" d="M403.86,370.87V494.41H44.78v-226H304.07l-.33-30.55H48.17s-36,8.83-36,38V491.7s4.07,39.37,39.37,39.37H170.35v36.65H140.49v29.19H319V567.72H276.24V532.43H406.57S447.3,527,447.3,482.87v-112ZM237.55,571.12H217.7V531.41h19.85Z" transform="translate(-12.2 -101.14)"/><path class="cls-1" d="M522.59,158.06c19.79,20.37,35.32,43.69,45,70.86a189.73,189.73,0,0,1,11.15,76.19,34.46,34.46,0,0,1-1,7.35,17.92,17.92,0,0,1-18.64,13.19c-8.33-.76-14.23-7.47-13.51-16.32a155,155,0,0,0-3.05-46C537,238,526.29,215.42,510.15,195.83s-35-35.52-58.27-46.28c-24.95-11.55-51.42-17.26-80-14.93-10,.82-17.38-5.54-17.39-14.8,0-9.84,7.18-17.19,17.5-18.06,28.25-2.37,55,2.13,80.71,11.51a188.17,188.17,0,0,1,62,37.61c1.36,1.22,2.84,2.31,4.19,3.54S521.37,156.84,522.59,158.06Z" transform="translate(-12.2 -101.14)"/><path class="cls-1" d="M477.36,200.34c20.25,19.76,33.1,42.23,39.65,68.55a140.93,140.93,0,0,1,3.83,45.89c-.8,9.72-8.27,16.79-17.54,16.87s-15.75-7.1-15.2-16.72c1.57-27.7-4.94-52.75-20.85-74.14-24.69-33.2-58-50.86-101.83-48.71-9.75.48-16.7-6.34-16.37-15.86.32-9.08,7.68-16.33,17.12-16.9q49.93-3,90.06,23.65C464.33,188.33,472,194.25,477.36,200.34Z" transform="translate(-12.2 -101.14)"/><path class="cls-1" d="M434.75,244.71c18.86,19.93,27.55,43.82,25.13,72.25a18.28,18.28,0,0,1-15.17,16.86c-8.42,1.28-15.33-3.23-17.36-11.32a22.16,22.16,0,0,1-.18-6.66c1.4-24.74-8.34-43.29-28.65-55.52C388,254,376,252.05,363.17,253.05c-11.64.92-18.94-7.92-16.34-19.24,1.65-7.15,8.49-12.82,16.48-13.52a93.07,93.07,0,0,1,37.1,3.9A91.2,91.2,0,0,1,434.75,244.71Z" transform="translate(-12.2 -101.14)"/></svg>